<svg width="45" height="45" viewBox="0 0 512 512" fill="none" xmlns="http://www.w3.org/2000/svg">
<path d="M419.427 393.498C399.032 482.707 294.638 447.769 259 432.948V432.853C223.362 447.686 118.968 482.65 98.5733 393.373C98.5733 393.373 135.153 393.767 124.173 279.027C124.173 279.027 84.5432 51.7268 259 70.7254V71.0978C433.457 52.1138 393.827 279.239 393.827 279.239C382.847 393.891 419.427 393.498 419.427 393.498Z" fill="#3B434F"/>
<path d="M114.36 502C114.36 502 107.745 412.012 192.44 403.613H230.413V386.12C230.413 386.12 257.125 397.593 284.173 387.4L285.027 403.613H329.4C329.4 403.613 405.385 406.598 401.933 502.853L114.36 502Z" fill="#F8C9AE"/>
<path fill-rule="evenodd" clip-rule="evenodd" d="M401.262 505.587H116.746H111.228L112.605 482.057C115.294 436.115 151.492 401.053 192.915 401.053H221.399C219.551 402.582 218.197 404.167 217.223 405.747H195.43C155.506 405.747 120.619 439.495 118.027 483.717L117.071 500.04H400.51L399.98 483.717C397.388 439.495 362.501 405.747 322.578 405.747H300.766C299.932 404.179 298.746 402.593 297.09 401.053H324.839C366.263 401.053 402.46 436.115 405.149 482.057L406.527 505.587H401.262ZM288.65 405.747H287.16V401.053H288.816C288.717 402.273 288.653 403.811 288.65 405.747ZM228.639 401.053H230.413V405.747H228.88C228.857 403.754 228.766 402.224 228.639 401.053Z" fill="#3B434F"/>
<path d="M272.227 466.333C273.876 466.333 275.213 467.671 275.213 469.32C275.213 470.969 273.876 472.307 272.227 472.307C270.577 472.307 269.24 470.969 269.24 469.32C269.24 467.671 270.577 466.333 272.227 466.333Z" fill="#3B434F"/>
<path d="M272.227 485.96C273.876 485.96 275.213 487.297 275.213 488.947C275.213 490.596 273.876 491.933 272.227 491.933C270.577 491.933 269.24 490.596 269.24 488.947C269.24 487.297 270.577 485.96 272.227 485.96Z" fill="#3B434F"/>
<path fill-rule="evenodd" clip-rule="evenodd" d="M306.787 426.227L285.027 458.653C279.107 440.306 261.987 447.133 261.987 447.133V501.322C261.987 502.735 260.649 503.88 259 503.88C257.351 503.88 256.013 502.735 256.013 501.322V447.132C255.875 447.077 238.89 440.381 233.002 458.653L211.265 426.227C211.265 426.227 202.857 404.85 228.313 395.507C228.313 386.184 228.313 385.693 228.313 385.693H233.127C233.127 385.693 233.127 403.517 233.127 416.577C233.745 421.893 237.405 437.041 259 442.013C280.618 437.041 284.283 421.893 284.901 416.577C284.901 403.517 284.901 385.693 284.901 385.693H289.72C289.72 385.693 289.72 386.184 289.72 395.507C315.204 404.85 306.787 426.227 306.787 426.227ZM232.749 429.097C231.589 427.783 229.918 424.52 229.918 424.52C229.918 424.52 228.313 419.18 228.313 416.84C228.313 413.934 228.313 410.119 228.313 406.018C227.95 401.137 227.035 401.053 227.035 401.053C208.041 410.409 216.38 424.947 216.38 424.947L232.149 449.693C238.307 439.259 244.935 441.16 244.935 441.16C239.083 438.177 235.245 433.548 232.749 429.097ZM291 401.053C291 401.053 290.083 401.137 289.72 406.018C289.72 410.119 289.72 413.934 289.72 416.84C289.72 419.18 288.114 424.52 288.114 424.52C288.114 424.52 286.441 427.783 285.279 429.097C282.78 433.548 278.938 438.177 273.08 441.16C273.08 441.16 279.715 439.259 285.88 449.693L301.667 424.947C301.667 424.947 310.014 410.409 291 401.053Z" fill="#3B434F"/>
<path d="M259.215 116.467C312.293 116.467 354.187 166.068 352.825 225.665L351.377 289.006C350.094 345.152 308.845 389.533 259.215 389.533C209.584 389.533 168.336 345.152 167.052 289.006L165.605 225.665C164.242 166.068 206.137 116.467 259.215 116.467Z" fill="white"/>
<path fill-rule="evenodd" clip-rule="evenodd" d="M357.089 223.701L355.572 289.616C354.228 348.043 311.006 394.227 259.001 394.227C206.996 394.227 163.775 348.043 162.43 289.616L160.913 223.701C159.486 161.683 203.384 110.067 259.001 110.067C314.618 110.067 358.517 161.683 357.089 223.701ZM258.788 116.893C206.436 116.893 165.114 166.107 166.458 225.238L167.886 288.085C169.152 343.793 209.836 387.827 258.788 387.827C307.741 387.827 348.425 343.793 349.691 288.085L351.119 225.238C352.462 166.107 311.141 116.893 258.788 116.893Z" fill="#3B434F"/>
<path d="M305.08 327.326C297.325 334.06 279.808 340.467 259.427 340.467C239.045 340.467 221.529 334.06 213.773 327.326C213.773 327.326 212.98 325.143 214.144 323.978C215.33 322.793 217.187 323.051 217.187 323.051C224.934 329.789 239.038 335.347 259.427 335.347C279.816 335.347 293.92 329.789 301.667 323.051C301.667 323.051 303.562 322.347 304.482 323.267C306.255 325.041 305.08 327.326 305.08 327.326Z" fill="#3B434F"/>
<path d="M245.347 350.707H272.653V354.973H245.347V350.707Z" fill="#3B434F"/>
<path d="M212.067 238.067C216.78 238.067 220.6 241.887 220.6 246.6C220.6 251.313 216.78 255.133 212.067 255.133C207.354 255.133 203.533 251.313 203.533 246.6C203.533 241.887 207.354 238.067 212.067 238.067Z" fill="#3B434F"/>
<path d="M306.787 238.067C311.499 238.067 315.32 241.887 315.32 246.6C315.32 251.313 311.499 255.133 306.787 255.133C302.074 255.133 298.253 251.313 298.253 246.6C298.253 241.887 302.074 238.067 306.787 238.067Z" fill="#3B434F"/>
<path d="M211.64 269.64C219.887 269.64 226.573 270.113 226.573 279.453C226.573 289.087 219.887 289.267 211.64 289.267C203.393 289.267 196.707 287.512 196.707 279.453C196.707 270.04 203.393 269.64 211.64 269.64Z" fill="#F5F3EF"/>
<path d="M310.627 269.64C318.874 269.64 325.56 270.113 325.56 279.453C325.56 289.087 318.874 289.267 310.627 289.267C302.379 289.267 295.693 287.512 295.693 279.453C295.693 270.04 302.379 269.64 310.627 269.64Z" fill="#F5F3EF"/>
<path d="M282 222.61L284.471 225.749L286.005 227.695C286.005 227.695 313.155 212.703 332 230L334.009 230.985C334.009 230.985 329.367 205.909 288.728 220.576C286.584 221.158 284.346 221.829 282 222.61Z" fill="#3B434F"/>
<path d="M235 222.628L232.529 225.76L230.995 227.702C230.995 227.702 203.845 212.741 185 230.002L182.991 230.985C182.991 230.985 187.633 205.961 228.272 220.598C230.416 221.178 232.654 221.848 235 222.628Z" fill="#3B434F"/>
<path d="M350.307 186.013H368.227V228.68H350.307V186.013Z" fill="#3B434F"/>
<path d="M153.778 224.743C153.778 224.743 172.626 188.453 208.693 194.226C208.693 194.226 210.12 202.492 217.876 211.378C217.876 211.378 226.367 190.826 252.55 185.036C273.35 180.437 293.096 163.855 293.096 163.855C293.096 163.855 296.167 196.807 336.696 205.982C336.696 205.982 372.207 210.373 369.63 190.751C367.053 171.129 347.346 85.7236 252.98 98.6525C158.614 111.581 136.451 145.85 152.94 223.884" fill="#3B444F"/>
<path d="M159.807 233.313C159.795 233.314 158.76 232.487 156.804 231.871C155.826 231.564 154.611 231.311 153.226 231.248C152.88 231.233 152.524 231.229 152.16 231.24C151.796 231.25 151.423 231.274 151.045 231.315C150.287 231.396 149.505 231.541 148.718 231.767C145.567 232.673 142.353 234.875 140.465 239.419C139.517 241.691 138.892 244.55 138.727 248.126C138.685 249.02 138.673 249.959 138.691 250.945C138.709 251.931 138.758 252.963 138.84 254.045C139.003 256.209 139.298 258.568 139.738 261.14C139.728 261.137 139.328 268.91 142.106 277.841C144.719 286.573 150.992 297.299 162.573 300.364C161.241 278.185 161.2 255.59 159.807 233.313Z" fill="#F7FBFB"/>
<path d="M162.128 234.207C162.128 234.207 141.951 227.956 142.662 248.698C142.662 248.698 145.665 278.775 146.97 281.547C146.97 281.547 154.894 299.059 167.971 299.835C180.752 300.594 167.971 299.835 167.971 299.835L168.13 305.48C168.13 305.48 145.145 302.533 140.706 276.045L137.202 251.983C137.202 251.983 134.481 220.138 160.871 228.235C186.58 236.123 160.871 228.235 160.871 228.235L162.128 234.207Z" fill="#3B434F"/>
<path d="M155.468 275.995C155.468 275.995 154.339 276.848 153.369 276.848C152.399 276.848 151.284 275.995 151.284 275.995L149.202 255.012C149.202 255.012 152.074 244.679 164.265 250.139L164.554 256.139C164.554 256.139 153.858 252.346 154.079 257.069C154.292 261.616 155.468 275.995 155.468 275.995Z" fill="#3B434F"/>
<path d="M357.813 233.362C357.825 233.363 358.866 232.536 360.83 231.921C361.812 231.614 363.032 231.361 364.423 231.299C364.771 231.283 365.128 231.28 365.494 231.29C365.86 231.3 366.234 231.325 366.614 231.365C367.375 231.446 368.16 231.591 368.951 231.817C372.116 232.722 375.344 234.923 377.241 239.464C378.192 241.735 378.82 244.591 378.986 248.165C379.028 249.058 379.041 249.997 379.022 250.982C379.004 251.967 378.955 252.999 378.873 254.08C378.709 256.242 378.412 258.6 377.971 261.17C377.98 261.167 378.383 268.935 375.592 277.86C372.968 286.586 366.668 297.305 355.035 300.368C356.373 278.204 356.415 255.624 357.813 233.362Z" fill="#F7FBFB"/>
<path d="M355.483 234.256C355.483 234.256 375.747 228.008 375.034 248.737C375.034 248.737 372.017 278.793 370.707 281.564C370.707 281.564 362.748 299.064 349.614 299.839C336.777 300.597 349.614 299.839 349.614 299.839L349.455 305.48C349.455 305.48 372.54 302.535 376.999 276.065L380.518 252.019C380.518 252.019 383.25 220.196 356.745 228.287C330.923 236.17 356.745 228.287 356.745 228.287L355.483 234.256Z" fill="#3B434F"/>
<path d="M362.171 276.015C362.171 276.015 363.305 276.868 364.28 276.868C365.254 276.868 366.374 276.015 366.374 276.015L368.466 255.046C368.466 255.046 365.58 244.72 353.336 250.177L353.046 256.173C353.046 256.173 363.789 252.382 363.567 257.102C363.353 261.646 362.171 276.015 362.171 276.015Z" fill="#3B434F"/>
<path fill-rule="evenodd" clip-rule="evenodd" d="M266.893 274.333C267.391 274.333 267.889 274.333 268.387 274.333C271.474 278.526 272.73 284.97 274.36 290.547C274.865 292.275 274.375 295.298 273.933 296.52C272.316 300.996 267.236 300.915 263.053 302.92C261.93 303.458 261.095 304.388 259.64 304.627C258.692 303.791 257.547 303.627 257.08 302.28C255.928 300.693 257.413 299.702 258.573 299.08C260.68 297.95 267.181 296.837 267.96 294.813C268.923 293.718 268.283 290.423 267.96 289.267C267.133 286.305 266.737 283.832 265.613 281.16C264.867 279.385 263.557 277.514 264.333 275.4C264.977 275.124 266.367 274.81 266.893 274.333Z" fill="#3B434F"/>
</svg>
