<svg width="512" height="512" viewBox="0 0 512 512" fill="none" xmlns="http://www.w3.org/2000/svg">
<path d="M290.573 109.213C282.116 101.168 286.733 80.2 286.733 80.2C286.733 80.2 287.113 78.6714 288.007 76.1687C293.147 61.7756 315.271 15.1648 379.747 41.8L363.533 46.0666C363.533 46.0666 415.587 48.9133 415.587 133.107C415.587 217.3 415.587 331.933 415.587 331.933C415.587 331.933 375.76 367.34 325.987 308.893C276.213 250.447 290 163 290 163C290 163 299.031 117.258 290.573 109.213Z" fill="#3B444F"/>
<path d="M256.867 94.7067C316.013 94.7067 363.96 142.654 363.96 201.8V223.987C363.96 283.133 316.013 331.08 256.867 331.08C197.721 331.08 149.773 283.133 149.773 223.987V201.8C149.773 142.654 197.721 94.7067 256.867 94.7067Z" fill="#3B444F"/>
<path d="M117.36 502C117.36 502 110.745 412.012 195.44 403.613H233.413V386.12C233.413 386.12 260.125 397.593 287.173 387.4L288.027 403.613H332.4C332.4 403.613 408.385 406.598 404.933 502.853L117.36 502Z" fill="#F8C9AE"/>
<path d="M404.675 505.587H120.159H114.641L116.018 482.057C118.708 436.115 154.905 401.053 196.328 401.053H227.853V405.747H198.843C158.92 405.747 124.033 439.495 121.441 483.717L120.484 500.04H403.923L403.393 483.717C400.801 439.495 365.914 405.747 325.991 405.747H287.16V401.053H328.253C369.676 401.053 405.873 436.115 408.563 482.057L409.94 505.587H404.675Z" fill="#3B434F"/>
<path d="M258.72 453.96C235.863 453.96 217.333 435.431 217.333 412.573C217.333 408.574 217.912 404.712 218.97 401.053H219.04H223.432H230.987V405.747H222.239C221.824 407.96 221.6 410.24 221.6 412.573C221.6 433.074 238.219 449.693 258.72 449.693C279.221 449.693 295.84 433.074 295.84 412.573C295.84 410.24 295.616 407.96 295.201 405.747H286.453V401.053H294.008H298.4H298.47C299.528 404.712 300.107 408.574 300.107 412.573C300.107 435.431 281.577 453.96 258.72 453.96Z" fill="#3B434F"/>
<path d="M233.4 384.146V410.461C233.4 424.117 244.479 435.187 258.147 435.187C271.814 435.187 282.893 424.117 282.893 410.461V384.689C284.329 384.252 285.752 383.777 287.16 383.264V410.64C287.16 426.789 274.075 439.88 257.933 439.88C241.792 439.88 228.707 426.789 228.707 410.64V382.454C230.253 383.065 231.818 383.627 233.4 384.146Z" fill="#3B434F"/>
<path d="M259.007 125.427C313.036 125.427 354.137 172.81 351.938 227.03L348.954 300.61C340.499 350.565 306.059 386.63 259.384 391.667C213.855 386.882 178.739 350.552 169.06 300.61L166.076 227.03C163.876 172.81 204.978 125.427 259.007 125.427Z" fill="white"/>
<path fill-rule="evenodd" clip-rule="evenodd" d="M357.907 223.909L354.73 300.79C345.732 352.987 309.077 390.671 259.402 395.933C210.945 390.934 173.571 352.974 163.27 300.79L160.094 223.909C157.753 167.257 201.497 117.747 259 117.747C316.504 117.747 360.247 167.257 357.907 223.909ZM259.007 123.72C204.978 123.72 163.876 171.104 166.076 225.323L169.06 298.903C178.739 348.845 213.855 385.175 259.384 389.96C306.059 384.924 340.499 348.858 348.954 298.903L351.938 225.323C354.137 171.104 313.036 123.72 259.007 123.72Z" fill="#3B434F"/>
<path d="M305.08 327.326C297.325 334.06 279.808 340.467 259.427 340.467C239.045 340.467 221.529 334.06 213.773 327.326C213.773 327.326 212.98 325.143 214.144 323.978C215.33 322.793 217.187 323.051 217.187 323.051C224.934 329.789 239.038 335.347 259.427 335.347C279.816 335.347 293.92 329.789 301.667 323.051C301.667 323.051 303.562 322.347 304.482 323.267C306.255 325.041 305.08 327.326 305.08 327.326Z" fill="#3B434F"/>
<path d="M245.347 350.707H272.653V354.973H245.347V350.707Z" fill="#3B434F"/>
<path d="M160.807 233.313C160.795 233.314 159.76 232.487 157.804 231.871C156.826 231.564 155.611 231.311 154.226 231.248C153.88 231.233 153.524 231.229 153.16 231.24C152.796 231.25 152.423 231.274 152.045 231.315C151.287 231.396 150.505 231.541 149.718 231.767C146.567 232.673 143.353 234.875 141.465 239.419C140.517 241.691 139.892 244.55 139.727 248.126C139.685 249.02 139.673 249.959 139.691 250.945C139.709 251.931 139.758 252.963 139.84 254.045C140.003 256.209 140.298 258.568 140.738 261.14C140.728 261.137 140.328 268.91 143.106 277.841C145.719 286.573 151.992 297.299 163.573 300.364C162.241 278.185 162.2 255.59 160.807 233.313Z" fill="white"/>
<path d="M162.128 234.207C162.128 234.207 141.951 227.956 142.662 248.698C142.662 248.698 145.665 278.775 146.97 281.547C146.97 281.547 154.894 299.059 167.971 299.835C180.752 300.594 167.971 299.835 167.971 299.835L168.13 305.48C168.13 305.48 145.145 302.533 140.706 276.045L137.202 251.983C137.202 251.983 134.481 220.138 160.871 228.235C186.58 236.123 160.871 228.235 160.871 228.235L162.128 234.207Z" fill="#3B434F"/>
<path d="M155.468 275.995C155.468 275.995 154.339 276.848 153.369 276.848C152.399 276.848 151.284 275.995 151.284 275.995L149.202 255.012C149.202 255.012 152.074 244.679 164.265 250.139L164.554 256.139C164.554 256.139 153.858 252.346 154.079 257.069C154.292 261.616 155.468 275.995 155.468 275.995Z" fill="#3B434F"/>
<path d="M357.813 233.362C357.825 233.363 358.866 232.536 360.83 231.921C361.812 231.614 363.032 231.361 364.423 231.299C364.771 231.283 365.128 231.28 365.494 231.29C365.86 231.3 366.234 231.325 366.614 231.365C367.375 231.446 368.16 231.591 368.951 231.817C372.116 232.722 375.344 234.923 377.241 239.464C378.192 241.735 378.82 244.591 378.986 248.165C379.028 249.058 379.041 249.997 379.022 250.982C379.004 251.967 378.955 252.999 378.873 254.08C378.709 256.242 378.412 258.6 377.971 261.17C377.98 261.167 378.383 268.935 375.592 277.86C372.968 286.586 366.668 297.305 355.035 300.368C356.373 278.204 356.415 255.624 357.813 233.362Z" fill="white"/>
<path d="M355.483 234.256C355.483 234.256 375.747 228.008 375.034 248.737C375.034 248.737 372.017 278.793 370.707 281.564C370.707 281.564 362.748 299.064 349.614 299.839C336.777 300.597 349.614 299.839 349.614 299.839L349.455 305.48C349.455 305.48 372.54 302.535 376.999 276.065L380.518 252.019C380.518 252.019 383.25 220.196 356.745 228.287C330.923 236.17 356.745 228.287 356.745 228.287L355.483 234.256Z" fill="#3B434F"/>
<path d="M362.171 276.015C362.171 276.015 363.305 276.868 364.28 276.868C365.254 276.868 366.374 276.015 366.374 276.015L368.466 255.046C368.466 255.046 365.58 244.72 353.336 250.177L353.046 256.173C353.046 256.173 363.789 252.382 363.567 257.102C363.353 261.646 362.171 276.015 362.171 276.015Z" fill="#3B434F"/>
<path fill-rule="evenodd" clip-rule="evenodd" d="M266.893 274.333C267.391 274.333 267.889 274.333 268.387 274.333C271.474 278.526 272.73 284.97 274.36 290.547C274.865 292.275 274.375 295.298 273.933 296.52C272.316 300.996 267.236 300.915 263.053 302.92C261.93 303.458 261.095 304.388 259.64 304.627C258.692 303.791 257.547 303.627 257.08 302.28C255.928 300.693 257.413 299.702 258.573 299.08C260.68 297.95 267.181 296.837 267.96 294.813C268.923 293.718 268.283 290.423 267.96 289.267C267.133 286.305 266.737 283.832 265.613 281.16C264.867 279.385 263.557 277.514 264.333 275.4C264.977 275.124 266.367 274.81 266.893 274.333Z" fill="#3B434F"/>
<path d="M207.8 241.48H213.773C217.072 241.48 219.747 244.154 219.747 247.453C219.747 250.752 217.072 253.427 213.773 253.427H207.8C204.501 253.427 201.827 250.752 201.827 247.453C201.827 244.154 204.501 241.48 207.8 241.48Z" fill="#3B434F"/>
<path d="M305.08 241.48H311.053C314.352 241.48 317.027 244.154 317.027 247.453C317.027 250.752 314.352 253.427 311.053 253.427H305.08C301.781 253.427 299.107 250.752 299.107 247.453C299.107 244.154 301.781 241.48 305.08 241.48Z" fill="#3B434F"/>
<path d="M310.627 269.64C316.518 269.64 321.293 274.416 321.293 280.307C321.293 286.198 316.518 290.973 310.627 290.973C304.736 290.973 299.96 286.198 299.96 280.307C299.96 274.416 304.736 269.64 310.627 269.64Z" fill="#EDF1F1"/>
<path d="M207.373 269.64C213.264 269.64 218.04 274.416 218.04 280.307C218.04 286.198 213.264 290.973 207.373 290.973C201.482 290.973 196.707 286.198 196.707 280.307C196.707 274.416 201.482 269.64 207.373 269.64Z" fill="#EDF1F1"/>
<path fill-rule="evenodd" clip-rule="evenodd" d="M351.94 228.88C351.363 233.81 350.856 239.842 349.79 245.236C346.602 261.364 332.743 276.307 309.08 278.01C285.416 279.713 265.276 267.8 264.096 251.402C263.895 248.621 263.36 245.501 262.949 242.468C259.6 240.611 256.149 240.607 252.595 242.455C252.179 245.557 251.624 248.759 251.419 251.606C250.235 268.059 230.032 280.011 206.293 278.303C182.555 276.594 168.652 261.602 165.455 245.42C164.385 240.009 163.877 233.956 163.298 229.01L159.809 228.759L160.299 221.949L161.151 222.011L182.739 223.564L200.962 224.876L219.219 226.189L247.656 228.236C249.617 228.484 250.921 229.325 251.761 230.581C255.845 232.368 259.811 232.375 263.66 230.602C264.492 229.265 265.813 228.366 267.847 228.108L296.194 226.069L314.394 224.759L332.56 223.452L354.08 221.904L354.929 221.843L355.417 228.629L351.94 228.88ZM240.02 236.237L184.288 232.227C176.999 231.598 174.415 239.79 173.966 246.033C173.019 259.194 187.684 270.975 206.722 272.345C225.76 273.715 241.961 264.156 242.908 250.994C243.357 244.751 245.396 240.895 240.02 236.237ZM341.305 245.846C340.857 239.624 338.282 231.46 331.015 232.086L275.459 236.083C270.1 240.726 272.132 244.569 272.58 250.791C273.524 263.91 289.674 273.437 308.652 272.072C327.63 270.706 342.249 258.965 341.305 245.846Z" fill="#F9CFA8"/>
<path d="M167.693 167.24L198.84 127.56L227 114.333L264.973 108.36L308.493 110.92L366.947 171.507L351.16 228.68C351.16 228.68 347.542 203.465 328.12 183.453C310.004 164.787 298.253 160.2 298.253 160.2C298.253 160.2 291.402 187.847 245.773 186.867C163.93 185.109 167.565 243.231 164.707 248.307C164.393 248.865 164.28 223.987 164.28 223.987L167.693 167.24Z" fill="#3B434F"/>
</svg>
